<svg width="44" height="45" viewBox="0 0 44 45" fill="none" xmlns="http://www.w3.org/2000/svg">
<path fill-rule="evenodd" clip-rule="evenodd" d="M21.9935 9.23346C26.4 9.23346 26.9173 9.25311 28.6589 9.3317C30.2696 9.40373 31.1405 9.67224 31.7232 9.90145C32.4958 10.2027 33.0458 10.5563 33.622 11.1326C34.1982 11.709 34.5583 12.2591 34.853 13.0318C35.0756 13.6147 35.3506 14.4857 35.4226 16.0967C35.5012 17.8387 35.5208 18.3561 35.5208 22.7635C35.5208 27.171 35.5012 27.6883 35.4226 29.4303C35.3506 31.0414 35.0821 31.9124 34.853 32.4952C34.5518 33.268 34.1982 33.8181 33.622 34.3944C33.0458 34.9707 32.4958 35.3309 31.7232 35.6256C31.1405 35.8483 30.2696 36.1233 28.6589 36.1954C26.9173 36.2739 26.4 36.2936 21.9935 36.2936C17.5869 36.2936 17.0696 36.2739 15.328 36.1954C13.7173 36.1233 12.8464 35.8548 12.2637 35.6256C11.4911 35.3244 10.9411 34.9707 10.3649 34.3944C9.78869 33.8181 9.42857 33.268 9.13393 32.4952C8.91131 31.9124 8.63631 31.0414 8.56429 29.4303C8.48571 27.6883 8.46607 27.171 8.46607 22.7635C8.46607 18.3561 8.48571 17.8387 8.56429 16.0967C8.63631 14.4857 8.90476 13.6147 9.13393 13.0318C9.43512 12.2591 9.78869 11.709 10.3649 11.1326C10.9411 10.5563 11.4911 10.1962 12.2637 9.90145C12.8464 9.67879 13.7173 9.40373 15.328 9.3317C17.0696 9.24656 17.5869 9.23346 21.9935 9.23346ZM21.9935 6.26025C17.5149 6.26025 16.9518 6.2799 15.1905 6.35849C13.4357 6.43707 12.2375 6.71868 11.1899 7.12471C10.103 7.54384 9.18631 8.1136 8.26964 9.03045C7.35298 9.9473 6.78988 10.8707 6.36429 11.9513C5.95833 12.9991 5.67679 14.1975 5.59821 15.9592C5.51964 17.7143 5.5 18.2775 5.5 22.757C5.5 27.2364 5.51964 27.7996 5.59821 29.5613C5.67679 31.3164 5.95833 32.5149 6.36429 33.5692C6.78333 34.6564 7.35298 35.5732 8.26964 36.4901C9.18631 37.4069 10.1095 37.9701 11.1899 38.3958C12.2375 38.8018 13.4357 39.0834 15.197 39.162C16.9583 39.2406 17.5149 39.2603 22 39.2603C26.4851 39.2603 27.0417 39.2406 28.803 39.162C30.5577 39.0834 31.756 38.8018 32.8101 38.3958C33.897 37.9767 34.8137 37.4069 35.7304 36.4901C36.647 35.5732 37.2101 34.6498 37.6357 33.5692C38.0417 32.5214 38.3232 31.323 38.4018 29.5613C38.4804 27.7996 38.5 27.243 38.5 22.757C38.5 18.271 38.4804 17.7143 38.4018 15.9527C38.3232 14.1975 38.0417 12.9991 37.6357 11.9447C37.2167 10.8576 36.647 9.94075 35.7304 9.0239C34.8137 8.10705 33.8905 7.54384 32.8101 7.11816C31.7625 6.71213 30.5643 6.43053 28.803 6.35194C27.0351 6.2799 26.472 6.26025 21.9935 6.26025ZM21.9935 14.2829C17.3185 14.2829 13.5208 18.0747 13.5208 22.7572C13.5208 27.4397 17.3185 31.2315 21.9935 31.2315C26.6685 31.2315 30.4661 27.4331 30.4661 22.7572C30.4661 18.0812 26.6685 14.2829 21.9935 14.2829ZM21.9935 28.2583C18.9554 28.2583 16.4935 25.7959 16.4935 22.7572C16.4935 19.7185 18.9554 17.2561 21.9935 17.2561C25.0315 17.2561 27.4935 19.7185 27.4935 22.7572C27.4935 25.7959 25.0315 28.2583 21.9935 28.2583ZM32.7774 13.9486C32.7774 15.0409 31.8921 15.9264 30.8 15.9264C29.7079 15.9264 28.8226 15.0409 28.8226 13.9486C28.8226 12.8563 29.7079 11.9708 30.8 11.9708C31.8921 11.9708 32.7774 12.8563 32.7774 13.9486Z" fill="#2F2F33"/>
</svg>
