<svg width="44" height="45" viewBox="0 0 44 45" fill="none" xmlns="http://www.w3.org/2000/svg">
<path d="M15.8752 37.4268C28.3228 37.4268 35.134 26.1381 35.134 16.3652C35.134 16.0476 35.134 15.73 35.1208 15.4124C36.4408 14.373 37.5892 13.0594 38.5 11.5725C37.2856 12.1644 35.9788 12.5541 34.606 12.7418C36.0052 11.8324 37.0744 10.3743 37.5892 8.64206C36.2824 9.49377 34.8304 10.1001 33.286 10.4321C32.0584 8.98852 30.2896 8.09351 28.3492 8.09351C24.6136 8.09351 21.5776 11.4137 21.5776 15.499C21.5776 16.0764 21.6436 16.6394 21.7492 17.188C16.126 16.8704 11.1364 13.9255 7.7968 9.45046C7.216 10.5476 6.886 11.8179 6.886 13.1749C6.886 15.7444 8.0872 18.0108 9.8956 19.3389C8.7868 19.2956 7.744 18.9636 6.82 18.415C6.82 18.4439 6.82 18.4728 6.82 18.5161C6.82 22.0961 9.1564 25.0988 12.2452 25.7772C11.6776 25.9505 11.0836 26.0371 10.4632 26.0371C10.0276 26.0371 9.6052 25.9938 9.196 25.9072C10.054 28.852 12.562 30.9885 15.5188 31.0463C13.1956 33.0384 10.2784 34.2221 7.1104 34.2221C6.5692 34.2221 6.028 34.1932 5.5 34.1211C8.4964 36.1998 12.0604 37.4268 15.8752 37.4268Z" fill="#2F2F33"/>
</svg>
